<?xml version="1.0" encoding="UTF-8" standalone="no"?>
<svg
   xmlns:osb="http://www.openswatchbook.org/uri/2009/osb"
   xmlns:dc="http://purl.org/dc/elements/1.1/"
   xmlns:cc="http://creativecommons.org/ns#"
   xmlns:rdf="http://www.w3.org/1999/02/22-rdf-syntax-ns#"
   xmlns:svg="http://www.w3.org/2000/svg"
   xmlns="http://www.w3.org/2000/svg"
   xmlns:xlink="http://www.w3.org/1999/xlink"
   xmlns:sodipodi="http://sodipodi.sourceforge.net/DTD/sodipodi-0.dtd"
   xmlns:inkscape="http://www.inkscape.org/namespaces/inkscape"
   version="1.1"
   id="Layer_1"
   x="0px"
   y="0px"
   viewBox="0 0 489.6 489.6"
   style="enable-background:new 0 0 489.6 489.6;"
   xml:space="preserve"
   sodipodi:docname="previous.svg"
   inkscape:version="1.0 (4035a4fb49, 2020-05-01)"><metadata
   id="metadata45"><rdf:RDF><cc:Work
       rdf:about=""><dc:format>image/svg+xml</dc:format><dc:type
         rdf:resource="http://purl.org/dc/dcmitype/StillImage" /><dc:title /></cc:Work></rdf:RDF></metadata><defs
   id="defs43"><linearGradient
     id="linearGradient867"
     inkscape:collect="always"><stop
       id="stop863"
       offset="0"
       style="stop-color:#000000;stop-opacity:1;" /><stop
       id="stop865"
       offset="1"
       style="stop-color:#000000;stop-opacity:0;" /></linearGradient><linearGradient
     id="linearGradient868"
     osb:paint="solid"><stop
       style="stop-color:#ff0000;stop-opacity:1;"
       offset="0"
       id="stop866" /></linearGradient><clipPath
     clipPathUnits="userSpaceOnUse"
     id="clipPath2857"><g
       id="g2865">
	<g
   id="g2863">
		<path
   style="fill:#2c2f33"
   d="m 244.8,489.6 c 135,0 244.8,-109.8 244.8,-244.8 C 489.6,109.8 379.8,0 244.8,0 109.8,0 0,109.8 0,244.8 c 0,135 109.8,244.8 244.8,244.8 z m 0,-469.8 c 124.1,0 225,100.9 225,225 0,124.1 -100.9,225 -225,225 -124.1,0 -225,-100.9 -225,-225 0,-124.1 100.9,-225 225,-225 z"
   id="path2859" />
		<path
   style="fill:#3c92ca"
   d="m 265.5,326.1 c 1.9,1.9 4.5,2.9 7,2.9 2.5,0 5.1,-1 7,-2.9 3.9,-3.9 3.9,-10.1 0,-14 l -67.3,-67.3 67.3,-67.3 c 3.9,-3.9 3.9,-10.1 0,-14 -3.9,-3.9 -10.1,-3.9 -14,0 l -74.3,74.3 c -3.9,3.9 -3.9,10.1 0,14 z"
   id="path2861" />
	</g>
</g></clipPath><linearGradient
     gradientUnits="userSpaceOnUse"
     y2="244.8"
     x2="370.08118"
     y1="244.8"
     x1="119.51883"
     id="linearGradient869"
     xlink:href="#linearGradient867"
     inkscape:collect="always" /></defs><sodipodi:namedview
   inkscape:snap-page="true"
   inkscape:pagecheckerboard="true"
   inkscape:document-rotation="0"
   pagecolor="#ffffff"
   bordercolor="#666666"
   borderopacity="1"
   objecttolerance="10"
   gridtolerance="10"
   guidetolerance="10"
   inkscape:pageopacity="0"
   inkscape:pageshadow="2"
   inkscape:window-width="1920"
   inkscape:window-height="1171"
   id="namedview41"
   showgrid="false"
   inkscape:zoom="1.5012255"
   inkscape:cx="244.8"
   inkscape:cy="244.57796"
   inkscape:window-x="-9"
   inkscape:window-y="-9"
   inkscape:window-maximized="1"
   inkscape:current-layer="g861" />
<g
   style="display:inline"
   inkscape:groupmode="layer"
   id="layer1"
   inkscape:label="Layer 1"><g
     style="fill:#ffffff;fill-opacity:1;stroke:#000000;stroke-opacity:1;stroke-width:35.84667471;stroke-miterlimit:4;stroke-dasharray:none"
     transform="scale(0.94245525,1)"
     id="g861"><rect
       transform="matrix(1.713267,0,0,1.9584001,-205.24939,-234.61634)"
       clip-path="url(#clipPath2857)"
       style="fill:#ffffff;fill-opacity:1;stroke:url(#linearGradient869);stroke-width:0.56234961;stroke-opacity:1;stroke-miterlimit:4;stroke-dasharray:none"
       id="rect2840"
       width="250"
       height="250"
       x="119.8"
       y="119.8" /><rect
       y="119.8"
       x="119.8"
       height="250"
       width="250"
       id="rect855"
       style="fill:#ffffff;fill-opacity:1;stroke:#000000;stroke-width:0.56234959;stroke-opacity:1;stroke-miterlimit:4;stroke-dasharray:none"
       clip-path="url(#clipPath2857)"
       transform="matrix(1.713267,0,0,1.9584002,-112.65838,-234.61636)" /></g></g>
<g
   id="g10">
</g>
<g
   id="g12">
</g>
<g
   id="g14">
</g>
<g
   id="g16">
</g>
<g
   id="g18">
</g>
<g
   id="g20">
</g>
<g
   id="g22">
</g>
<g
   id="g24">
</g>
<g
   id="g26">
</g>
<g
   id="g28">
</g>
<g
   id="g30">
</g>
<g
   id="g32">
</g>
<g
   id="g34">
</g>
<g
   id="g36">
</g>
<g
   id="g38">
</g>
</svg>
