<svg xmlns="http://www.w3.org/2000/svg" viewBox="0 0 489 623"><defs><style>.cls-1{fill:#192a84;stroke:#231815;stroke-miterlimit:10;}</style></defs><g id="レイヤー_2" data-name="レイヤー 2"><g id="レイヤー_1-2" data-name="レイヤー 1"><path class="cls-1" d="M389,224.59c-.23,133.49-.23,134-1.83,139-7.18,22.43-21,39.35-43.91,53.91-45.83,29.21-117,34.72-171.3,13.23-36.58-14.41-60.94-37.78-70.11-67.14l-1.68-5.41-.23-133q0-13.12,0-24.86H198V190.3H99.89c0-3,0-6,0-8.84H198v-9.92H99.88v-9.38H198v-9.92H99.89v-9.92H198V132.4H99.91c0-3.53,0-6.83,0-9.92H198v-9.92H100q0-5.61.09-9.93h85.64V92.71H100.25c.08-3.13.18-5,.29-5.59,3.82-22,18.49-42.59,41.55-58.14C165.69,13.05,195.78,3.31,229.61.6c1.45-.1,9.39-.14,17.56,0,11.61.1,16.73.35,23.3,1.23,62.08,8,108.59,40.88,117.6,83.13C389.14,90,389.22,104.92,389,224.59Z"/><path class="cls-1" d="M401.44,554.62H280.78V503.67l6.33-.59c3.44-.35,11.15-1.38,17-2.31,88.75-14,157.86-58.44,177.94-114.51,5.43-15.24,6.42-25.42,6.42-67.72,0-30.6-.23-34.09-2.44-35-.54-.2-17-.4-36.66-.4H413.66l-1.07,1.08c-1,1-1.15,6.89-1.45,39.75-.31,41.75-.31,41.85-4.74,53.17-14,35.41-57.73,64-113.79,74.36-35.74,6.59-75.68,5.56-109.59-2.85-50.32-12.49-87.67-39.1-100.42-71.51C78.17,365.8,78.17,365.7,77.86,324c-.3-32.86-.46-38.76-1.45-39.75l-1.07-1.08H39.6c-19.63,0-36.12.2-36.66.4-2.21.93-2.44,4.42-2.44,35,0,42.3,1,52.48,6.42,67.72,16.49,46,66.59,85,134.79,104.92,17.94,5.21,43.07,10.18,60.25,11.9l6.26.59v50.95H87.56"/><path class="cls-1" d="M87.56,554.62V622.5H401.44V554.62"/></g></g></svg>